<?xml version="1.0" encoding="utf-8"?>
<!-- Generator: Adobe Illustrator 21.0.2, SVG Export Plug-In . SVG Version: 6.00 Build 0)  -->
<svg version="1.1" id="Layer_1" xmlns="http://www.w3.org/2000/svg" xmlns:xlink="http://www.w3.org/1999/xlink" x="0px" y="0px"
	 width="31.1px" height="22px" viewBox="0 0 31.1 22" enable-background="new 0 0 31.1 22" xml:space="preserve">
<g>
	<g>
		<g>
			<g>
				<path fill="#FFFFFF" d="M14.6,0C11.2,0.1,7.8,0.2,4.4,0.4C1.7,0.6,0.7,2.2,0.4,4.4C0.1,5.7,0,7.1,0,8.4c0,2.8,0.1,5.6,0.2,8.5
					c0,0.7,0.3,1.5,0.5,2.2c0.6,1.8,2,2.5,3.7,2.6c1.7,0.2,3.4,0.2,5.1,0.3c3.9,0.1,7.8,0.1,11.7,0c1.9,0,3.8-0.2,5.7-0.3
					c2.1-0.2,3.5-1.5,3.8-3.9c0.2-1.7,0.4-3.5,0.4-5.2c0-2.4-0.1-4.9-0.3-7.3c0-0.7-0.3-1.5-0.5-2.2c-0.5-1.6-1.7-2.5-3.4-2.6
					c-2.3-0.2-4.6-0.3-6.8-0.3c-1.9-0.1-3.7,0-5.6,0C14.6,0.1,14.6,0,14.6,0z M12.3,6.3c2.8,1.5,5.6,2.9,8.4,4.4
					c-2.9,1.5-5.6,2.9-8.4,4.4C12.3,12.1,12.3,9.3,12.3,6.3z"/>
			</g>
		</g>
	</g>
</g>
</svg>
