<?xml version="1.0" encoding="utf-8"?>
<!-- Generator: Adobe Illustrator 21.0.2, SVG Export Plug-In . SVG Version: 6.00 Build 0)  -->
<svg version="1.1" id="Layer_1" xmlns="http://www.w3.org/2000/svg" xmlns:xlink="http://www.w3.org/1999/xlink" x="0px" y="0px"
	 viewBox="0 0 25 20" style="enable-background:new 0 0 25 20;" xml:space="preserve">
<style type="text/css">
	.st0{opacity:0.5;}
	.st1{fill:#002A4A;}
</style>
<g class="st0">
	<g>
		<path class="st1" d="M0,4.4c0,0.8,0,1.5,0,2.3C0,8,0.4,9.1,1.4,10c2.8,2.8,5.6,5.6,8.4,8.5c0.2,0.2,0.4,0.4,0.6,0.6
			c0.7,0.6,1.6,0.6,2.3,0c2.1-2.1,4.2-4.2,6.3-6.3c0.7-0.7,0.7-1.7,0-2.4c-3-3-5.9-6-8.9-8.9C9,0.4,8,0,6.7,0C5.1,0,3.5,0,1.8,0
			C0.7,0,0,0.7,0,1.8C0,2.7,0,3.6,0,4.4z M4.1,5.8C3.2,5.8,2.5,5,2.5,4.1s0.7-1.6,1.6-1.7C5,2.4,5.7,3.1,5.7,4C5.7,5,5,5.8,4.1,5.8z
			"/>
		<path class="st1" d="M15,18.6c0.9,1,1.9,1.1,2.7,0.2c2-2,4-4,6-6c0.9-0.9,0.9-1.8,0-2.7c-2.9-2.9-5.8-5.8-8.7-8.7
			c-1-1-2.1-1.5-3.5-1.4c-0.6,0-1.2,0-1.8,0C9.8,0,9.9,0.1,10,0.1c0.8,0.2,1.5,0.6,2.1,1.3c2.9,2.9,5.8,5.8,8.7,8.7c1,1,1,1.9,0,2.8
			c-1.8,1.8-3.6,3.6-5.4,5.4C15.2,18.5,15.1,18.5,15,18.6z"/>
	</g>
</g>
</svg>
