<?xml version="1.0" encoding="utf-8"?>
<!-- Generator: Adobe Illustrator 21.0.2, SVG Export Plug-In . SVG Version: 6.00 Build 0)  -->
<svg version="1.1" id="Layer_1" xmlns="http://www.w3.org/2000/svg" xmlns:xlink="http://www.w3.org/1999/xlink" x="0px" y="0px"
	 width="26.7px" height="25.6px" viewBox="0 0 26.7 25.6" style="enable-background:new 0 0 26.7 25.6;" xml:space="preserve">
<g>
	<g>
		<g>
			<g>
				<path d="M15,10.7c0-0.9,0-1.6,0-2.3c-1.9,0-3.8,0-5.7,0c0,5.7,0,11.4,0,17.2c1.9,0,3.7,0,5.7,0c0-0.2,0-0.4,0-0.6
					c0-3.1,0-6.2,0-9.3c0-2.1,1.8-3.5,3.8-3.1c1,0.2,1.6,0.8,1.9,1.7c0.2,0.7,0.3,1.4,0.3,2.1c0,2.9,0,5.7,0,8.6c0,0.2,0,0.4,0,0.6
					c1.9,0,3.8,0,5.7,0c0-0.2,0-0.3,0-0.5c0-3.4,0-6.8,0-10.3c0-2.1-0.7-4-2.4-5.5c-2.1-1.8-6.8-2.3-9.1,1.1
					C15.2,10.5,15.1,10.5,15,10.7z"/>
				<path d="M6,8.4c-1.9,0-3.7,0-5.6,0c0,5.7,0,11.4,0,17.2c1.9,0,3.7,0,5.6,0C6,19.8,6,14.1,6,8.4z"/>
				<path d="M3.2,6c1.3,0,2.3-0.4,2.9-1.6c0.5-1,0.4-2.1-0.2-3.1c-0.8-1.1-2.6-1.6-4-1C0.5,0.8-0.2,2,0,3.5S1.5,6,3.2,6z"/>
			</g>
		</g>
	</g>
</g>
</svg>
