<svg id="Layer_1" data-name="Layer 1" xmlns="http://www.w3.org/2000/svg" viewBox="0 0 26.73 25.56"><defs><style>.cls-1{fill:#fff;}</style></defs><title>icon-social-linkedin</title><path class="cls-1" d="M15,10.7V8.4H9.3V25.6H15V15.7a3.1,3.1,0,0,1,3.8-3.1,2.38,2.38,0,0,1,1.9,1.7,7.61,7.61,0,0,1,.3,2.1v9.2h5.7V14.8a7,7,0,0,0-2.4-5.5c-2.1-1.8-6.8-2.3-9.1,1.1C15.2,10.5,15.1,10.5,15,10.7Z" transform="translate(0.03 -0.04)"/><path class="cls-1" d="M6,8.4H.4V25.6H6Z" transform="translate(0.03 -0.04)"/><path class="cls-1" d="M3.2,6A2.89,2.89,0,0,0,6.1,4.4a3.14,3.14,0,0,0-.2-3.1,3.49,3.49,0,0,0-4-1A2.8,2.8,0,0,0,0,3.5,3,3,0,0,0,3.2,6Z" transform="translate(0.03 -0.04)"/></svg>