<?xml version="1.0" encoding="utf-8"?>
<!-- Generator: Adobe Illustrator 21.0.2, SVG Export Plug-In . SVG Version: 6.00 Build 0)  -->
<svg version="1.1" id="Layer_1" xmlns="http://www.w3.org/2000/svg" xmlns:xlink="http://www.w3.org/1999/xlink" x="0px" y="0px"
	 width="26.7px" height="26.9px" viewBox="0 0 26.7 26.9" style="enable-background:new 0 0 26.7 26.9;" xml:space="preserve">
<g>
	<g>
		<g>
			<path d="M13.4,0c-2.3,0.1-4.6,0.1-6.8,0.3C2.8,0.7,0.3,3.4,0.1,7.2C0,10.7,0,14.3,0,17.8C0,18.9,0.1,20,0.3,21
				c0.7,3.2,2.9,5.3,6.2,5.6c1.4,0.2,2.8,0.2,4.2,0.2c2.8,0,5.7,0,8.5-0.1c2.7-0.1,5.1-1.2,6.4-3.8c0.8-1.5,1-3,1-4.6
				c0-3.2,0.1-6.5,0-9.7c0-1.3-0.2-2.6-0.6-3.8c-0.9-2.7-3.1-4.2-5.8-4.5C17.9,0.1,15.6,0.1,13.4,0z M13.3,24.6
				c-2-0.1-4.1-0.1-6.2-0.3c-1.6-0.1-2.9-0.8-3.8-2.1c-0.6-0.9-0.8-2-0.9-3c0-3.2,0-6.4,0-9.6c0-0.9,0.1-1.9,0.2-2.8
				c0.3-2.2,1.6-3.6,3.7-4.1c0.5,0,1.1-0.1,1.7-0.1c3.6,0,7.1,0,10.7,0c1.2,0,2.3,0.2,3.4,0.9c1.5,1,2.1,2.5,2.2,4.2
				c0.1,3.9,0.1,7.8,0,11.7c-0.1,3-1.8,4.8-4.8,5C17.4,24.5,15.4,24.5,13.3,24.6z"/>
			<path d="M13.3,20.3c3.8,0,6.9-3,6.9-6.8c0-3.9-3-6.9-6.8-6.9s-6.9,3-6.9,6.8C6.5,17.3,9.4,20.3,13.3,20.3z M17.8,13.7
				c0,2.5-2.3,4.5-4.7,4.3c-2.5-0.2-4.4-2.3-4.2-4.6C9,10.8,11.2,8.8,13.8,9C16.1,9.2,18,11.4,17.8,13.7z"/>
			<path d="M20.5,4.7c-0.9,0-1.6,0.7-1.6,1.6s0.7,1.6,1.6,1.6s1.6-0.7,1.6-1.6C22.1,5.5,21.4,4.7,20.5,4.7z"/>
		</g>
	</g>
</g>
</svg>
