<?xml version="1.0" encoding="utf-8"?>
<!-- Generator: Adobe Illustrator 21.0.2, SVG Export Plug-In . SVG Version: 6.00 Build 0)  -->
<svg version="1.1" id="Layer_1" xmlns="http://www.w3.org/2000/svg" xmlns:xlink="http://www.w3.org/1999/xlink" x="0px" y="0px"
	 width="15px" height="28.9px" viewBox="0 0 15 28.9" enable-background="new 0 0 15 28.9" xml:space="preserve">
<g>
	<g>
		<g>
			<path fill="#FFFFFF" d="M4.4,10.6c-1.5,0-3,0-4.4,0c0,1.7,0,3.4,0,5.1c1.5,0,2.9,0,4.4,0c0,4.4,0,8.8,0,13.2c1.8,0,3.5,0,5.3,0
				c0-4.4,0-8.7,0-13.2c1,0,1.9,0,2.8,0c0.5,0,1.2,0.1,1.5-0.1c0.3-0.2,0.2-0.9,0.3-1.4c0.2-1.2,0.3-2.4,0.5-3.6c-1.7,0-3.4,0-5,0
				c0-1.5-0.1-2.9,0-4.3c0.1-0.8,0.7-1.3,1.5-1.4c0.8-0.1,1.7-0.1,2.5-0.1c0.4,0,0.7,0,1.1,0c0-1.5,0-3,0-4.6
				C14.4,0.1,13.7,0,13.1,0C11.7,0,10.3,0,9,0.2C6.4,0.8,4.7,2.9,4.5,5.7C4.4,7.1,4.5,8.5,4.4,9.9C4.4,10.1,4.4,10.3,4.4,10.6z"/>
		</g>
	</g>
</g>
</svg>
