<svg id="Layer_1" data-name="Layer 1" xmlns="http://www.w3.org/2000/svg" viewBox="0 0 23.46 23.13"><defs><style>.cls-1{fill:#17607d;}</style></defs><title>icon-social-linkedin-blue</title><path class="cls-1" d="M5.31,2.51A2.5,2.5,0,0,1,2.61,5,2.47,2.47,0,0,1,0,2.51,2.49,2.49,0,0,1,2.67,0,2.48,2.48,0,0,1,5.31,2.51ZM.13,23.13V7h5V23.13Z"/><path class="cls-1" d="M8.15,12.14c0-2-.07-3.69-.13-5.15h4.35l.23,2.24h.1a5.79,5.79,0,0,1,5-2.61c3.3,0,5.77,2.21,5.77,7v9.54h-5V14.19c0-2.08-.73-3.5-2.54-3.5a2.75,2.75,0,0,0-2.57,1.88,3.6,3.6,0,0,0-.17,1.25v9.3h-5Z"/></svg>