<svg id="Layer_1" data-name="Layer 1" xmlns="http://www.w3.org/2000/svg" viewBox="0 0 23.98 19.49"><defs><style>.cls-1{fill:#17607d;}</style></defs><title>icon-social-twitter-blue</title><path class="cls-1" d="M24,2.31a9.84,9.84,0,0,1-2.83.77A4.93,4.93,0,0,0,23.32.36a9.86,9.86,0,0,1-3.12,1.19A4.92,4.92,0,0,0,11.81,6,14,14,0,0,1,1.67.9,4.92,4.92,0,0,0,3.19,7.47,4.9,4.9,0,0,1,1,6.85s0,0,0,.06a4.92,4.92,0,0,0,3.95,4.82,4.92,4.92,0,0,1-2.22.08,4.92,4.92,0,0,0,4.6,3.42,9.87,9.87,0,0,1-6.11,2.11A9.87,9.87,0,0,1,0,17.28a13.92,13.92,0,0,0,7.54,2.21,13.9,13.9,0,0,0,14-14q0-.32,0-.64A10,10,0,0,0,24,2.31Z"/></svg>