<svg id="Layer_1" data-name="Layer 1" xmlns="http://www.w3.org/2000/svg" viewBox="0 0 26.64 26.8"><defs><style>.cls-1{fill:#17607d;}</style></defs><title>icon-social-instagram-blue</title><path class="cls-1" d="M13.4,0C11.1.1,8.8.1,6.6.3A7,7,0,0,0,.1,7.2C0,10.7,0,14.3,0,17.8A16.55,16.55,0,0,0,.3,21a6.7,6.7,0,0,0,6.2,5.6,29.54,29.54,0,0,0,4.2.2c2.8,0,5.7,0,8.5-.1a7,7,0,0,0,6.4-3.8,9.35,9.35,0,0,0,1-4.6c0-3.2.1-6.5,0-9.7A12.09,12.09,0,0,0,26,4.8,6.55,6.55,0,0,0,20.2.3C17.9.1,15.6.1,13.4,0Zm-.1,24.6c-2-.1-4.1-.1-6.2-.3a4.78,4.78,0,0,1-3.8-2.1,6.54,6.54,0,0,1-.9-3V9.6a26.35,26.35,0,0,1,.2-2.8A4.57,4.57,0,0,1,6.3,2.7c.5,0,1.1-.1,1.7-.1H18.7a6,6,0,0,1,3.4.9,5.08,5.08,0,0,1,2.2,4.2q.15,5.85,0,11.7a4.73,4.73,0,0,1-4.8,5C17.4,24.5,15.4,24.5,13.3,24.6Z"/><path class="cls-1" d="M13.3,20.3a6.85,6.85,0,1,0-6.8-6.9A6.71,6.71,0,0,0,13.3,20.3Zm4.5-6.6a4.45,4.45,0,1,1-8.9-.3A4.56,4.56,0,0,1,13.8,9,4.5,4.5,0,0,1,17.8,13.7Z"/><path class="cls-1" d="M20.5,4.7a1.6,1.6,0,1,0,1.6,1.6A1.64,1.64,0,0,0,20.5,4.7Z"/></svg>