<svg id="Layer_1" data-name="Layer 1" xmlns="http://www.w3.org/2000/svg" viewBox="0 0 31.1 22.08"><defs><style>.cls-1{fill:#17607d;}</style></defs><title>icon-social-youtube-blue</title><path class="cls-1" d="M14.6,0C11.2.1,7.8.2,4.4.4,1.7.6.7,2.2.4,4.4a18.1,18.1,0,0,0-.4,4c0,2.8.1,5.6.2,8.5a8.73,8.73,0,0,0,.5,2.2,3.75,3.75,0,0,0,3.7,2.6c1.7.2,3.4.2,5.1.3q5.85.15,11.7,0c1.9,0,3.8-.2,5.7-.3a4,4,0,0,0,3.8-3.9,45.5,45.5,0,0,0,.4-5.2c0-2.4-.1-4.9-.3-7.3a8.73,8.73,0,0,0-.5-2.2A3.54,3.54,0,0,0,26.9.5C24.6.3,22.3.2,20.1.2c-1.9-.1-3.7,0-5.6,0A.31.31,0,0,0,14.6,0ZM12.3,6.3c2.8,1.5,5.6,2.9,8.4,4.4-2.9,1.5-5.6,2.9-8.4,4.4Z"/></svg>